<svg xmlns="http://www.w3.org/2000/svg" viewBox="0 0 384 512" width="64" height="64">
  <path fill="#1e8a57" d="M14 2.2C22.5-1.7 32.5-.3 39.6 5.8L80 40.4 120.4 5.8c9-7.7 22.3-7.7 31.2 0L192 40.4 232.4 5.8c9-7.7 22.3-7.7 31.2 0L304 40.4 344.4 5.8c7.1-6.1 17.1-7.5 25.6-3.6S384 13.2 384 22.4L384 489.6c0 9.2-5.5 17.5-14 21.4s-18.5 2.5-25.6-3.6L304 472.4l-40.4 34.6c-9 7.7-22.3 7.7-31.2 0L192 472.4l-40.4 34.6c-9 7.7-22.3 7.7-31.2 0L80 472.4 39.6 507c-7.1 6.1-17.1 7.5-25.6 3.6S0 498.8 0 489.6L0 22.4C0 13.2 5.5 4.9 14 2.2zM96 136c-13.3 0-24 10.7-24 24s10.7 24 24 24l192 0c13.3 0 24-10.7 24-24s-10.7-24-24-24L96 136zm0 96c-13.3 0-24 10.7-24 24s10.7 24 24 24l192 0c13.3 0 24-10.7 24-24s-10.7-24-24-24L96 232zm0 96c-13.3 0-24 10.7-24 24s10.7 24 24 24l96 0c13.3 0 24-10.7 24-24s-10.7-24-24-24L96 328z"/>
</svg>